<?xml version="1.0" encoding="UTF-8" standalone="no"?>
<!-- Created with Inkscape (http://www.inkscape.org/) -->

<svg
   xmlns:osb="http://www.openswatchbook.org/uri/2009/osb"
   xmlns:dc="http://purl.org/dc/elements/1.1/"
   xmlns:cc="http://creativecommons.org/ns#"
   xmlns:rdf="http://www.w3.org/1999/02/22-rdf-syntax-ns#"
   xmlns:svg="http://www.w3.org/2000/svg"
   xmlns="http://www.w3.org/2000/svg"
   xmlns:sodipodi="http://sodipodi.sourceforge.net/DTD/sodipodi-0.dtd"
   xmlns:inkscape="http://www.inkscape.org/namespaces/inkscape"
   width="210mm"
   height="297mm"
   id="svg2"
   version="1.1"
   inkscape:version="0.48.2 r9819"
   sodipodi:docname="moocfab_s7_uselessbox_hand.dxf">
  <defs
     id="defs4">
    <linearGradient
       id="linearGradient3792"
       osb:paint="solid">
      <stop
         style="stop-color:#000000;stop-opacity:1;"
         offset="0"
         id="stop3794" />
    </linearGradient>
  </defs>
  <sodipodi:namedview
     id="base"
     pagecolor="#ffffff"
     bordercolor="#666666"
     borderopacity="1.0"
     inkscape:pageopacity="0.0"
     inkscape:pageshadow="2"
     inkscape:zoom="1"
     inkscape:cx="377.98806"
     inkscape:cy="875.79634"
     inkscape:document-units="px"
     inkscape:current-layer="layer1"
     showgrid="false"
     showguides="true"
     inkscape:window-width="1221"
     inkscape:window-height="753"
     inkscape:window-x="56"
     inkscape:window-y="0"
     inkscape:window-maximized="0">
    <inkscape:grid
       type="xygrid"
       id="grid3014" />
  </sodipodi:namedview>
  <metadata
     id="metadata7">
    <rdf:RDF>
      <cc:Work
         rdf:about="">
        <dc:format>image/svg+xml</dc:format>
        <dc:type
           rdf:resource="http://purl.org/dc/dcmitype/StillImage" />
        <dc:title></dc:title>
      </cc:Work>
    </rdf:RDF>
  </metadata>
  <g
     inkscape:label="Calque 1"
     inkscape:groupmode="layer"
     id="layer1">
    <path
       style="fill:none;stroke:#000000;stroke-width:0.90384793;stroke-opacity:1"
       d="M 340.78125 154.21875 C 339.62454 154.23452 338.57926 154.26909 337.65625 154.28125 C 311.2846 154.62873 277.07291 174.77084 262.75 227.375 L 245.5 316.375 C 245.4807 316.83935 245.4375 317.31216 245.4375 317.78125 C 245.4375 336.12235 260.31515 351 278.65625 351 C 296.99735 351 311.875 336.12235 311.875 317.78125 C 311.875 317.64595 311.877 317.50991 311.875 317.375 L 312 317.375 L 311.8125 316.1875 L 311.8125 316.0625 C 311.69497 313.74395 311.35046 311.51293 310.78125 309.34375 L 298.21875 227.375 L 298.28125 227.5 C 298.28125 227.5 293.96875 213.04167 306.96875 203.375 C 319.96875 193.70834 336.65625 187.375 336.65625 187.375 C 336.65625 187.375 341.94687 197.27176 354.65625 203.375 C 363.53125 207.63691 367.58331 211.60106 383.78125 202 C 388.84544 198.99828 390.84532 197.63994 391.53125 197.0625 L 406.875 207.75 C 410.01612 207.94699 413.04908 208.02038 411.625 203 L 402.5 196.34375 C 402.5262 196.34875 402.56825 196.33875 402.59375 196.34375 C 401.87303 195.86739 401.14123 195.35651 400.40625 194.84375 C 400.13493 194.65446 399.86498 194.47355 399.59375 194.28125 L 399.375 194.125 C 393.58217 190.0011 387.28125 185.65625 387.28125 185.65625 C 395.94341 184.5764 402.80887 181.35788 398.53125 177.0625 C 391.5868 170.06068 385.63482 166.02095 374.78125 160.59375 C 362.26511 154.3352 348.87825 154.10833 340.78125 154.21875 z M 279.03125 287.84375 C 280.94792 287.84375 282.5 289.39583 282.5 291.3125 C 282.5 293.22917 280.94792 294.78125 279.03125 294.78125 C 277.11458 294.78125 275.5625 293.22917 275.5625 291.3125 C 275.5625 289.39583 277.11458 287.84375 279.03125 287.84375 z M 278.53125 305.4375 C 285.32972 305.4375 290.84375 310.95153 290.84375 317.75 C 290.84375 324.54847 285.32972 330.0625 278.53125 330.0625 C 271.73278 330.0625 266.25 324.54847 266.25 317.75 C 266.25 310.95153 271.73278 305.4375 278.53125 305.4375 z M 252.6875 314.1875 C 254.60417 314.1875 256.15625 315.73958 256.15625 317.65625 C 256.15625 319.57292 254.60417 321.15625 252.6875 321.15625 C 250.77083 321.15625 249.21875 319.57292 249.21875 317.65625 C 249.21875 315.73958 250.77083 314.1875 252.6875 314.1875 z M 304.6875 315.21875 C 306.60417 315.21875 308.15625 316.77083 308.15625 318.6875 C 308.15625 320.60417 306.60417 322.15625 304.6875 322.15625 C 302.77083 322.15625 301.21875 320.60417 301.21875 318.6875 C 301.21875 316.77083 302.77083 315.21875 304.6875 315.21875 z M 277.96875 340.1875 C 279.88542 340.1875 281.4375 341.77083 281.4375 343.6875 C 281.4375 345.60417 279.88542 347.15625 277.96875 347.15625 C 276.05208 347.15625 274.5 345.60417 274.5 343.6875 C 274.5 341.77083 276.05208 340.1875 277.96875 340.1875 z "
       id="path5246" />
  </g>
</svg>
